<mxfile host="app.diagrams.net" modified="2023-12-01T02:51:57.832Z" agent="Mozilla/5.0 (Windows NT 10.0; Win64; x64) AppleWebKit/537.36 (KHTML, like Gecko) Chrome/119.0.0.0 Safari/537.36" etag="hY-KiJZL6UtnEyY-rSMa" version="22.1.5" type="device">
  <diagram name="Trang-1" id="f6OKg-heRmBSfU7t1ZK3">
    <mxGraphModel dx="3694" dy="1276" grid="1" gridSize="10" guides="1" tooltips="1" connect="1" arrows="1" fold="1" page="1" pageScale="1" pageWidth="827" pageHeight="1169" math="0" shadow="0">
      <root>
        <mxCell id="0" />
        <mxCell id="1" parent="0" />
        <mxCell id="6AVrOI3u7pl0AgrOhSl4-1" value="Customer" style="rounded=1;whiteSpace=wrap;html=1;" parent="1" vertex="1">
          <mxGeometry x="10" y="230" width="120" height="60" as="geometry" />
        </mxCell>
        <mxCell id="6AVrOI3u7pl0AgrOhSl4-2" value="Address" style="ellipse;whiteSpace=wrap;html=1;" parent="1" vertex="1">
          <mxGeometry x="40" y="410" width="120" height="80" as="geometry" />
        </mxCell>
        <mxCell id="6AVrOI3u7pl0AgrOhSl4-3" value="&lt;u&gt;&lt;b&gt;CustomerID&lt;/b&gt;&lt;/u&gt;" style="ellipse;whiteSpace=wrap;html=1;" parent="1" vertex="1">
          <mxGeometry x="10" y="60" width="120" height="80" as="geometry" />
        </mxCell>
        <mxCell id="6AVrOI3u7pl0AgrOhSl4-4" value="Phone" style="ellipse;whiteSpace=wrap;html=1;" parent="1" vertex="1">
          <mxGeometry x="-120" y="410" width="120" height="80" as="geometry" />
        </mxCell>
        <mxCell id="6AVrOI3u7pl0AgrOhSl4-5" value="Gender" style="ellipse;whiteSpace=wrap;html=1;" parent="1" vertex="1">
          <mxGeometry x="-180" y="310" width="120" height="80" as="geometry" />
        </mxCell>
        <mxCell id="6AVrOI3u7pl0AgrOhSl4-6" value="CustomerSurname" style="ellipse;whiteSpace=wrap;html=1;" parent="1" vertex="1">
          <mxGeometry x="-180" y="210" width="120" height="80" as="geometry" />
        </mxCell>
        <mxCell id="6AVrOI3u7pl0AgrOhSl4-7" value="CustomerName" style="ellipse;whiteSpace=wrap;html=1;" parent="1" vertex="1">
          <mxGeometry x="-180" y="100" width="120" height="80" as="geometry" />
        </mxCell>
        <mxCell id="6AVrOI3u7pl0AgrOhSl4-9" value="" style="endArrow=none;html=1;rounded=0;exitX=0.5;exitY=0;exitDx=0;exitDy=0;entryX=0.5;entryY=1;entryDx=0;entryDy=0;" parent="1" source="6AVrOI3u7pl0AgrOhSl4-2" target="6AVrOI3u7pl0AgrOhSl4-1" edge="1">
          <mxGeometry width="50" height="50" relative="1" as="geometry">
            <mxPoint x="340" y="350" as="sourcePoint" />
            <mxPoint x="390" y="300" as="targetPoint" />
          </mxGeometry>
        </mxCell>
        <mxCell id="6AVrOI3u7pl0AgrOhSl4-10" value="" style="endArrow=none;html=1;rounded=0;exitX=0.5;exitY=0;exitDx=0;exitDy=0;entryX=0.5;entryY=1;entryDx=0;entryDy=0;" parent="1" source="6AVrOI3u7pl0AgrOhSl4-1" target="6AVrOI3u7pl0AgrOhSl4-3" edge="1">
          <mxGeometry width="50" height="50" relative="1" as="geometry">
            <mxPoint x="120" y="420" as="sourcePoint" />
            <mxPoint x="80" y="300" as="targetPoint" />
          </mxGeometry>
        </mxCell>
        <mxCell id="6AVrOI3u7pl0AgrOhSl4-11" value="" style="endArrow=none;html=1;rounded=0;exitX=0.25;exitY=0;exitDx=0;exitDy=0;" parent="1" source="6AVrOI3u7pl0AgrOhSl4-1" target="6AVrOI3u7pl0AgrOhSl4-7" edge="1">
          <mxGeometry width="50" height="50" relative="1" as="geometry">
            <mxPoint x="130" y="430" as="sourcePoint" />
            <mxPoint x="90" y="310" as="targetPoint" />
          </mxGeometry>
        </mxCell>
        <mxCell id="6AVrOI3u7pl0AgrOhSl4-12" value="" style="endArrow=none;html=1;rounded=0;exitX=0;exitY=0.25;exitDx=0;exitDy=0;entryX=1;entryY=0.5;entryDx=0;entryDy=0;" parent="1" source="6AVrOI3u7pl0AgrOhSl4-1" target="6AVrOI3u7pl0AgrOhSl4-6" edge="1">
          <mxGeometry width="50" height="50" relative="1" as="geometry">
            <mxPoint x="140" y="440" as="sourcePoint" />
            <mxPoint x="100" y="320" as="targetPoint" />
          </mxGeometry>
        </mxCell>
        <mxCell id="6AVrOI3u7pl0AgrOhSl4-13" value="" style="endArrow=none;html=1;rounded=0;exitX=0;exitY=0.5;exitDx=0;exitDy=0;entryX=1;entryY=0;entryDx=0;entryDy=0;" parent="1" source="6AVrOI3u7pl0AgrOhSl4-1" target="6AVrOI3u7pl0AgrOhSl4-5" edge="1">
          <mxGeometry width="50" height="50" relative="1" as="geometry">
            <mxPoint x="150" y="450" as="sourcePoint" />
            <mxPoint x="110" y="330" as="targetPoint" />
          </mxGeometry>
        </mxCell>
        <mxCell id="6AVrOI3u7pl0AgrOhSl4-14" value="" style="endArrow=none;html=1;rounded=0;exitX=0.5;exitY=0;exitDx=0;exitDy=0;entryX=0.25;entryY=1;entryDx=0;entryDy=0;" parent="1" target="6AVrOI3u7pl0AgrOhSl4-1" edge="1">
          <mxGeometry width="50" height="50" relative="1" as="geometry">
            <mxPoint x="-40" y="410" as="sourcePoint" />
            <mxPoint x="-80" y="290" as="targetPoint" />
          </mxGeometry>
        </mxCell>
        <mxCell id="6AVrOI3u7pl0AgrOhSl4-15" value="Product" style="rounded=1;whiteSpace=wrap;html=1;" parent="1" vertex="1">
          <mxGeometry x="2390" y="1231" width="120" height="60" as="geometry" />
        </mxCell>
        <mxCell id="6AVrOI3u7pl0AgrOhSl4-16" value="Quantity" style="ellipse;whiteSpace=wrap;html=1;" parent="1" vertex="1">
          <mxGeometry x="2360" y="1431" width="120" height="80" as="geometry" />
        </mxCell>
        <mxCell id="6AVrOI3u7pl0AgrOhSl4-17" value="ProductName" style="ellipse;whiteSpace=wrap;html=1;" parent="1" vertex="1">
          <mxGeometry x="2130" y="1321" width="120" height="80" as="geometry" />
        </mxCell>
        <mxCell id="6AVrOI3u7pl0AgrOhSl4-18" value="&lt;u&gt;&lt;b&gt;ProductID&lt;/b&gt;&lt;/u&gt;" style="ellipse;whiteSpace=wrap;html=1;" parent="1" vertex="1">
          <mxGeometry x="2260" y="1040" width="120" height="80" as="geometry" />
        </mxCell>
        <mxCell id="6AVrOI3u7pl0AgrOhSl4-21" value="IMG" style="ellipse;whiteSpace=wrap;html=1;" parent="1" vertex="1">
          <mxGeometry x="2640" y="1401" width="120" height="80" as="geometry" />
        </mxCell>
        <mxCell id="6AVrOI3u7pl0AgrOhSl4-22" value="Description" style="ellipse;whiteSpace=wrap;html=1;" parent="1" vertex="1">
          <mxGeometry x="2400" y="1031" width="120" height="80" as="geometry" />
        </mxCell>
        <mxCell id="6AVrOI3u7pl0AgrOhSl4-23" value="ProductPrice" style="ellipse;whiteSpace=wrap;html=1;" parent="1" vertex="1">
          <mxGeometry x="2500" y="1431" width="120" height="80" as="geometry" />
        </mxCell>
        <mxCell id="6AVrOI3u7pl0AgrOhSl4-24" value="Color" style="ellipse;whiteSpace=wrap;html=1;" parent="1" vertex="1">
          <mxGeometry x="2540" y="1111" width="120" height="80" as="geometry" />
        </mxCell>
        <mxCell id="6AVrOI3u7pl0AgrOhSl4-25" value="Size" style="ellipse;whiteSpace=wrap;html=1;" parent="1" vertex="1">
          <mxGeometry x="2216" y="1421" width="120" height="80" as="geometry" />
        </mxCell>
        <mxCell id="6AVrOI3u7pl0AgrOhSl4-26" value="" style="endArrow=none;html=1;rounded=0;exitX=0;exitY=1;exitDx=0;exitDy=0;entryX=0.5;entryY=0;entryDx=0;entryDy=0;" parent="1" target="6AVrOI3u7pl0AgrOhSl4-15" edge="1">
          <mxGeometry width="50" height="50" relative="1" as="geometry">
            <mxPoint x="2457.5735931288073" y="1109.2842712474617" as="sourcePoint" />
            <mxPoint x="2370" y="1311" as="targetPoint" />
          </mxGeometry>
        </mxCell>
        <mxCell id="6AVrOI3u7pl0AgrOhSl4-27" value="" style="endArrow=none;html=1;rounded=0;entryX=0;entryY=0.5;entryDx=0;entryDy=0;exitX=0.63;exitY=0.007;exitDx=0;exitDy=0;exitPerimeter=0;" parent="1" source="6AVrOI3u7pl0AgrOhSl4-15" target="6AVrOI3u7pl0AgrOhSl4-24" edge="1">
          <mxGeometry width="50" height="50" relative="1" as="geometry">
            <mxPoint x="2320" y="1361" as="sourcePoint" />
            <mxPoint x="2370" y="1311" as="targetPoint" />
          </mxGeometry>
        </mxCell>
        <mxCell id="6AVrOI3u7pl0AgrOhSl4-28" value="" style="endArrow=none;html=1;rounded=0;entryX=0;entryY=0;entryDx=0;entryDy=0;exitX=1;exitY=0.5;exitDx=0;exitDy=0;" parent="1" source="6AVrOI3u7pl0AgrOhSl4-15" target="6AVrOI3u7pl0AgrOhSl4-21" edge="1">
          <mxGeometry width="50" height="50" relative="1" as="geometry">
            <mxPoint x="2320" y="1361" as="sourcePoint" />
            <mxPoint x="2370" y="1311" as="targetPoint" />
          </mxGeometry>
        </mxCell>
        <mxCell id="6AVrOI3u7pl0AgrOhSl4-30" value="" style="endArrow=none;html=1;rounded=0;entryX=0.75;entryY=1;entryDx=0;entryDy=0;exitX=0.5;exitY=0;exitDx=0;exitDy=0;" parent="1" source="6AVrOI3u7pl0AgrOhSl4-23" target="6AVrOI3u7pl0AgrOhSl4-15" edge="1">
          <mxGeometry width="50" height="50" relative="1" as="geometry">
            <mxPoint x="2320" y="1361" as="sourcePoint" />
            <mxPoint x="2370" y="1311" as="targetPoint" />
          </mxGeometry>
        </mxCell>
        <mxCell id="6AVrOI3u7pl0AgrOhSl4-31" value="" style="endArrow=none;html=1;rounded=0;exitX=0.5;exitY=0;exitDx=0;exitDy=0;" parent="1" source="6AVrOI3u7pl0AgrOhSl4-16" edge="1">
          <mxGeometry width="50" height="50" relative="1" as="geometry">
            <mxPoint x="2320" y="1361" as="sourcePoint" />
            <mxPoint x="2450" y="1291" as="targetPoint" />
          </mxGeometry>
        </mxCell>
        <mxCell id="6AVrOI3u7pl0AgrOhSl4-32" value="" style="endArrow=none;html=1;rounded=0;entryX=0;entryY=0.5;entryDx=0;entryDy=0;exitX=1;exitY=0;exitDx=0;exitDy=0;" parent="1" source="6AVrOI3u7pl0AgrOhSl4-25" target="6AVrOI3u7pl0AgrOhSl4-15" edge="1">
          <mxGeometry width="50" height="50" relative="1" as="geometry">
            <mxPoint x="2320" y="1361" as="sourcePoint" />
            <mxPoint x="2370" y="1311" as="targetPoint" />
          </mxGeometry>
        </mxCell>
        <mxCell id="6AVrOI3u7pl0AgrOhSl4-33" value="" style="endArrow=none;html=1;rounded=0;entryX=0;entryY=0.5;entryDx=0;entryDy=0;exitX=1;exitY=0.5;exitDx=0;exitDy=0;" parent="1" source="6AVrOI3u7pl0AgrOhSl4-17" target="6AVrOI3u7pl0AgrOhSl4-15" edge="1">
          <mxGeometry width="50" height="50" relative="1" as="geometry">
            <mxPoint x="2320" y="1361" as="sourcePoint" />
            <mxPoint x="2370" y="1311" as="targetPoint" />
          </mxGeometry>
        </mxCell>
        <mxCell id="6AVrOI3u7pl0AgrOhSl4-35" value="" style="endArrow=none;html=1;rounded=0;entryX=0.5;entryY=1;entryDx=0;entryDy=0;exitX=0.5;exitY=0;exitDx=0;exitDy=0;" parent="1" source="6AVrOI3u7pl0AgrOhSl4-15" edge="1">
          <mxGeometry width="50" height="50" relative="1" as="geometry">
            <mxPoint x="2320" y="1361" as="sourcePoint" />
            <mxPoint x="2340" y="1121" as="targetPoint" />
          </mxGeometry>
        </mxCell>
        <mxCell id="6AVrOI3u7pl0AgrOhSl4-36" value="Producer" style="rounded=1;whiteSpace=wrap;html=1;" parent="1" vertex="1">
          <mxGeometry x="2857" y="1230" width="120" height="60" as="geometry" />
        </mxCell>
        <mxCell id="6AVrOI3u7pl0AgrOhSl4-37" value="ProducerName" style="ellipse;whiteSpace=wrap;html=1;" parent="1" vertex="1">
          <mxGeometry x="3027" y="1220" width="120" height="80" as="geometry" />
        </mxCell>
        <mxCell id="6AVrOI3u7pl0AgrOhSl4-38" value="&lt;u&gt;&lt;b&gt;ProducerID&lt;/b&gt;&lt;/u&gt;" style="ellipse;whiteSpace=wrap;html=1;" parent="1" vertex="1">
          <mxGeometry x="2857" y="1080" width="120" height="80" as="geometry" />
        </mxCell>
        <mxCell id="6AVrOI3u7pl0AgrOhSl4-39" value="" style="endArrow=none;html=1;rounded=0;entryX=1;entryY=0.5;entryDx=0;entryDy=0;exitX=0;exitY=0.5;exitDx=0;exitDy=0;" parent="1" source="6AVrOI3u7pl0AgrOhSl4-37" target="6AVrOI3u7pl0AgrOhSl4-36" edge="1">
          <mxGeometry width="50" height="50" relative="1" as="geometry">
            <mxPoint x="2787" y="1420" as="sourcePoint" />
            <mxPoint x="2837" y="1370" as="targetPoint" />
          </mxGeometry>
        </mxCell>
        <mxCell id="6AVrOI3u7pl0AgrOhSl4-40" value="" style="endArrow=none;html=1;rounded=0;exitX=0.5;exitY=1;exitDx=0;exitDy=0;entryX=0.5;entryY=0;entryDx=0;entryDy=0;" parent="1" source="6AVrOI3u7pl0AgrOhSl4-38" target="6AVrOI3u7pl0AgrOhSl4-36" edge="1">
          <mxGeometry width="50" height="50" relative="1" as="geometry">
            <mxPoint x="2787" y="1420" as="sourcePoint" />
            <mxPoint x="2837" y="1370" as="targetPoint" />
          </mxGeometry>
        </mxCell>
        <mxCell id="6AVrOI3u7pl0AgrOhSl4-41" value="Category" style="rounded=1;whiteSpace=wrap;html=1;" parent="1" vertex="1">
          <mxGeometry x="1930" y="1230" width="120" height="60" as="geometry" />
        </mxCell>
        <mxCell id="6AVrOI3u7pl0AgrOhSl4-42" value="TypeName" style="ellipse;whiteSpace=wrap;html=1;" parent="1" vertex="1">
          <mxGeometry x="1740" y="1220" width="120" height="80" as="geometry" />
        </mxCell>
        <mxCell id="6AVrOI3u7pl0AgrOhSl4-43" value="&lt;b&gt;&lt;u&gt;TypeID&lt;/u&gt;&lt;/b&gt;" style="ellipse;whiteSpace=wrap;html=1;" parent="1" vertex="1">
          <mxGeometry x="1930" y="1080" width="120" height="80" as="geometry" />
        </mxCell>
        <mxCell id="6AVrOI3u7pl0AgrOhSl4-44" value="" style="endArrow=none;html=1;rounded=0;entryX=1;entryY=0.5;entryDx=0;entryDy=0;exitX=0;exitY=0.5;exitDx=0;exitDy=0;" parent="1" source="6AVrOI3u7pl0AgrOhSl4-41" target="6AVrOI3u7pl0AgrOhSl4-42" edge="1">
          <mxGeometry width="50" height="50" relative="1" as="geometry">
            <mxPoint x="1930" y="1290" as="sourcePoint" />
            <mxPoint x="1240" y="1440" as="targetPoint" />
          </mxGeometry>
        </mxCell>
        <mxCell id="6AVrOI3u7pl0AgrOhSl4-45" value="" style="endArrow=none;html=1;rounded=0;exitX=0.5;exitY=0;exitDx=0;exitDy=0;entryX=0.5;entryY=1;entryDx=0;entryDy=0;" parent="1" source="6AVrOI3u7pl0AgrOhSl4-41" target="6AVrOI3u7pl0AgrOhSl4-43" edge="1">
          <mxGeometry width="50" height="50" relative="1" as="geometry">
            <mxPoint x="1190" y="1490" as="sourcePoint" />
            <mxPoint x="1240" y="1440" as="targetPoint" />
          </mxGeometry>
        </mxCell>
        <mxCell id="6AVrOI3u7pl0AgrOhSl4-46" value="Bill" style="rounded=1;whiteSpace=wrap;html=1;" parent="1" vertex="1">
          <mxGeometry x="680" y="230" width="120" height="60" as="geometry" />
        </mxCell>
        <mxCell id="6AVrOI3u7pl0AgrOhSl4-47" value="Total" style="ellipse;whiteSpace=wrap;html=1;" parent="1" vertex="1">
          <mxGeometry x="840" y="130" width="120" height="80" as="geometry" />
        </mxCell>
        <mxCell id="6AVrOI3u7pl0AgrOhSl4-48" value="UpdateTime" style="ellipse;whiteSpace=wrap;html=1;" parent="1" vertex="1">
          <mxGeometry x="440" y="100" width="120" height="80" as="geometry" />
        </mxCell>
        <mxCell id="6AVrOI3u7pl0AgrOhSl4-49" value="&lt;b&gt;&lt;u&gt;BillID&lt;/u&gt;&lt;/b&gt;" style="ellipse;whiteSpace=wrap;html=1;" parent="1" vertex="1">
          <mxGeometry x="740" y="60" width="120" height="80" as="geometry" />
        </mxCell>
        <mxCell id="6AVrOI3u7pl0AgrOhSl4-50" value="CreateTime" style="ellipse;whiteSpace=wrap;html=1;" parent="1" vertex="1">
          <mxGeometry x="600" y="65" width="120" height="80" as="geometry" />
        </mxCell>
        <mxCell id="6AVrOI3u7pl0AgrOhSl4-54" value="" style="endArrow=none;html=1;rounded=0;exitX=0.5;exitY=0;exitDx=0;exitDy=0;entryX=0;entryY=1;entryDx=0;entryDy=0;" parent="1" source="6AVrOI3u7pl0AgrOhSl4-46" target="6AVrOI3u7pl0AgrOhSl4-47" edge="1">
          <mxGeometry width="50" height="50" relative="1" as="geometry">
            <mxPoint x="1440" y="30" as="sourcePoint" />
            <mxPoint x="1490" y="-20" as="targetPoint" />
          </mxGeometry>
        </mxCell>
        <mxCell id="6AVrOI3u7pl0AgrOhSl4-56" value="" style="endArrow=none;html=1;rounded=0;exitX=0.5;exitY=0;exitDx=0;exitDy=0;entryX=0.5;entryY=1;entryDx=0;entryDy=0;" parent="1" source="6AVrOI3u7pl0AgrOhSl4-46" target="6AVrOI3u7pl0AgrOhSl4-49" edge="1">
          <mxGeometry width="50" height="50" relative="1" as="geometry">
            <mxPoint x="1440" y="30" as="sourcePoint" />
            <mxPoint x="1490" y="-20" as="targetPoint" />
          </mxGeometry>
        </mxCell>
        <mxCell id="6AVrOI3u7pl0AgrOhSl4-57" value="" style="endArrow=none;html=1;rounded=0;exitX=1;exitY=0.5;exitDx=0;exitDy=0;entryX=0.5;entryY=0;entryDx=0;entryDy=0;" parent="1" source="6AVrOI3u7pl0AgrOhSl4-48" target="6AVrOI3u7pl0AgrOhSl4-46" edge="1">
          <mxGeometry width="50" height="50" relative="1" as="geometry">
            <mxPoint x="1440" y="30" as="sourcePoint" />
            <mxPoint x="1490" y="-20" as="targetPoint" />
          </mxGeometry>
        </mxCell>
        <mxCell id="6AVrOI3u7pl0AgrOhSl4-58" value="" style="endArrow=none;html=1;rounded=0;exitX=0.5;exitY=1;exitDx=0;exitDy=0;entryX=0.5;entryY=0;entryDx=0;entryDy=0;" parent="1" source="6AVrOI3u7pl0AgrOhSl4-50" target="6AVrOI3u7pl0AgrOhSl4-46" edge="1">
          <mxGeometry width="50" height="50" relative="1" as="geometry">
            <mxPoint x="1440" y="30" as="sourcePoint" />
            <mxPoint x="1490" y="-20" as="targetPoint" />
          </mxGeometry>
        </mxCell>
        <mxCell id="6AVrOI3u7pl0AgrOhSl4-59" value="" style="rounded=1;whiteSpace=wrap;html=1;" parent="1" vertex="1">
          <mxGeometry x="680" y="480" width="120" height="60" as="geometry" />
        </mxCell>
        <mxCell id="6AVrOI3u7pl0AgrOhSl4-60" value="Unitprice" style="ellipse;whiteSpace=wrap;html=1;" parent="1" vertex="1">
          <mxGeometry x="750" y="610" width="120" height="80" as="geometry" />
        </mxCell>
        <mxCell id="6AVrOI3u7pl0AgrOhSl4-62" value="Quantity" style="ellipse;whiteSpace=wrap;html=1;" parent="1" vertex="1">
          <mxGeometry x="590" y="605" width="120" height="80" as="geometry" />
        </mxCell>
        <mxCell id="6AVrOI3u7pl0AgrOhSl4-64" value="" style="endArrow=none;html=1;rounded=0;exitX=0.5;exitY=0;exitDx=0;exitDy=0;entryX=0.5;entryY=1;entryDx=0;entryDy=0;" parent="1" source="6AVrOI3u7pl0AgrOhSl4-60" target="6AVrOI3u7pl0AgrOhSl4-59" edge="1">
          <mxGeometry width="50" height="50" relative="1" as="geometry">
            <mxPoint x="720" y="290" as="sourcePoint" />
            <mxPoint x="770" y="240" as="targetPoint" />
          </mxGeometry>
        </mxCell>
        <mxCell id="6AVrOI3u7pl0AgrOhSl4-66" value="" style="endArrow=none;html=1;rounded=0;entryX=0.5;entryY=1;entryDx=0;entryDy=0;exitX=0.5;exitY=0;exitDx=0;exitDy=0;" parent="1" source="6AVrOI3u7pl0AgrOhSl4-62" target="6AVrOI3u7pl0AgrOhSl4-59" edge="1">
          <mxGeometry width="50" height="50" relative="1" as="geometry">
            <mxPoint x="720" y="290" as="sourcePoint" />
            <mxPoint x="770" y="240" as="targetPoint" />
          </mxGeometry>
        </mxCell>
        <mxCell id="6AVrOI3u7pl0AgrOhSl4-68" value="Staff" style="rounded=1;whiteSpace=wrap;html=1;" parent="1" vertex="1">
          <mxGeometry x="1280" y="230" width="120" height="60" as="geometry" />
        </mxCell>
        <mxCell id="6AVrOI3u7pl0AgrOhSl4-69" value="Adđress" style="ellipse;whiteSpace=wrap;html=1;" parent="1" vertex="1">
          <mxGeometry x="1550" y="130" width="120" height="80" as="geometry" />
        </mxCell>
        <mxCell id="6AVrOI3u7pl0AgrOhSl4-71" value="IMG" style="ellipse;whiteSpace=wrap;html=1;" parent="1" vertex="1">
          <mxGeometry x="1400" y="20" width="120" height="80" as="geometry" />
        </mxCell>
        <mxCell id="6AVrOI3u7pl0AgrOhSl4-72" value="Salary" style="ellipse;whiteSpace=wrap;html=1;" parent="1" vertex="1">
          <mxGeometry x="1530" y="50" width="120" height="80" as="geometry" />
        </mxCell>
        <mxCell id="6AVrOI3u7pl0AgrOhSl4-73" value="Phone" style="ellipse;whiteSpace=wrap;html=1;" parent="1" vertex="1">
          <mxGeometry x="1070" y="310" width="120" height="80" as="geometry" />
        </mxCell>
        <mxCell id="6AVrOI3u7pl0AgrOhSl4-74" value="Gender" style="ellipse;whiteSpace=wrap;html=1;" parent="1" vertex="1">
          <mxGeometry x="1280" y="380" width="120" height="80" as="geometry" />
        </mxCell>
        <mxCell id="6AVrOI3u7pl0AgrOhSl4-76" value="&lt;b&gt;&lt;u&gt;StaffID&lt;/u&gt;&lt;/b&gt;" style="ellipse;whiteSpace=wrap;html=1;" parent="1" vertex="1">
          <mxGeometry x="1270" y="10" width="120" height="80" as="geometry" />
        </mxCell>
        <mxCell id="6AVrOI3u7pl0AgrOhSl4-78" value="FirstName" style="ellipse;whiteSpace=wrap;html=1;" parent="1" vertex="1">
          <mxGeometry x="1141" y="30" width="120" height="80" as="geometry" />
        </mxCell>
        <mxCell id="6AVrOI3u7pl0AgrOhSl4-79" value="YearOfBirth" style="ellipse;whiteSpace=wrap;html=1;" parent="1" vertex="1">
          <mxGeometry x="1141" y="380" width="120" height="80" as="geometry" />
        </mxCell>
        <mxCell id="6AVrOI3u7pl0AgrOhSl4-80" value="LastName" style="ellipse;whiteSpace=wrap;html=1;" parent="1" vertex="1">
          <mxGeometry x="1040" y="90" width="120" height="80" as="geometry" />
        </mxCell>
        <mxCell id="6AVrOI3u7pl0AgrOhSl4-81" value="" style="endArrow=none;html=1;rounded=0;entryX=0.5;entryY=1;entryDx=0;entryDy=0;exitX=0.5;exitY=0;exitDx=0;exitDy=0;" parent="1" source="6AVrOI3u7pl0AgrOhSl4-68" target="6AVrOI3u7pl0AgrOhSl4-76" edge="1">
          <mxGeometry width="50" height="50" relative="1" as="geometry">
            <mxPoint x="1560" y="205" as="sourcePoint" />
            <mxPoint x="860" y="85" as="targetPoint" />
          </mxGeometry>
        </mxCell>
        <mxCell id="6AVrOI3u7pl0AgrOhSl4-84" value="" style="endArrow=none;html=1;rounded=0;exitX=0.75;exitY=0;exitDx=0;exitDy=0;entryX=0;entryY=1;entryDx=0;entryDy=0;" parent="1" source="6AVrOI3u7pl0AgrOhSl4-68" target="6AVrOI3u7pl0AgrOhSl4-71" edge="1">
          <mxGeometry width="50" height="50" relative="1" as="geometry">
            <mxPoint x="810" y="135" as="sourcePoint" />
            <mxPoint x="860" y="85" as="targetPoint" />
          </mxGeometry>
        </mxCell>
        <mxCell id="6AVrOI3u7pl0AgrOhSl4-85" value="" style="endArrow=none;html=1;rounded=0;entryX=0;entryY=0.5;entryDx=0;entryDy=0;exitX=0.75;exitY=0;exitDx=0;exitDy=0;" parent="1" source="6AVrOI3u7pl0AgrOhSl4-68" target="6AVrOI3u7pl0AgrOhSl4-72" edge="1">
          <mxGeometry width="50" height="50" relative="1" as="geometry">
            <mxPoint x="810" y="135" as="sourcePoint" />
            <mxPoint x="860" y="85" as="targetPoint" />
          </mxGeometry>
        </mxCell>
        <mxCell id="6AVrOI3u7pl0AgrOhSl4-86" value="" style="endArrow=none;html=1;rounded=0;exitX=0;exitY=0.5;exitDx=0;exitDy=0;" parent="1" source="6AVrOI3u7pl0AgrOhSl4-69" edge="1">
          <mxGeometry width="50" height="50" relative="1" as="geometry">
            <mxPoint x="810" y="135" as="sourcePoint" />
            <mxPoint x="1370" y="230" as="targetPoint" />
          </mxGeometry>
        </mxCell>
        <mxCell id="6AVrOI3u7pl0AgrOhSl4-87" value="" style="endArrow=none;html=1;rounded=0;exitX=1;exitY=0;exitDx=0;exitDy=0;" parent="1" source="6AVrOI3u7pl0AgrOhSl4-73" edge="1">
          <mxGeometry width="50" height="50" relative="1" as="geometry">
            <mxPoint x="810" y="135" as="sourcePoint" />
            <mxPoint x="1310" y="290" as="targetPoint" />
          </mxGeometry>
        </mxCell>
        <mxCell id="6AVrOI3u7pl0AgrOhSl4-88" value="" style="endArrow=none;html=1;rounded=0;exitX=0.5;exitY=0;exitDx=0;exitDy=0;" parent="1" source="6AVrOI3u7pl0AgrOhSl4-74" edge="1">
          <mxGeometry width="50" height="50" relative="1" as="geometry">
            <mxPoint x="810" y="135" as="sourcePoint" />
            <mxPoint x="1340" y="290" as="targetPoint" />
          </mxGeometry>
        </mxCell>
        <mxCell id="6AVrOI3u7pl0AgrOhSl4-89" value="" style="endArrow=none;html=1;rounded=0;entryX=1;entryY=0;entryDx=0;entryDy=0;exitX=0.5;exitY=1;exitDx=0;exitDy=0;" parent="1" source="6AVrOI3u7pl0AgrOhSl4-68" target="6AVrOI3u7pl0AgrOhSl4-79" edge="1">
          <mxGeometry width="50" height="50" relative="1" as="geometry">
            <mxPoint x="810" y="135" as="sourcePoint" />
            <mxPoint x="860" y="85" as="targetPoint" />
          </mxGeometry>
        </mxCell>
        <mxCell id="6AVrOI3u7pl0AgrOhSl4-90" value="" style="endArrow=none;html=1;rounded=0;exitX=1;exitY=1;exitDx=0;exitDy=0;entryX=0;entryY=0;entryDx=0;entryDy=0;" parent="1" source="6AVrOI3u7pl0AgrOhSl4-80" target="6AVrOI3u7pl0AgrOhSl4-68" edge="1">
          <mxGeometry width="50" height="50" relative="1" as="geometry">
            <mxPoint x="810" y="135" as="sourcePoint" />
            <mxPoint x="860" y="85" as="targetPoint" />
          </mxGeometry>
        </mxCell>
        <mxCell id="6AVrOI3u7pl0AgrOhSl4-91" value="" style="endArrow=none;html=1;rounded=0;entryX=0.5;entryY=1;entryDx=0;entryDy=0;exitX=0.25;exitY=0;exitDx=0;exitDy=0;" parent="1" source="6AVrOI3u7pl0AgrOhSl4-68" target="6AVrOI3u7pl0AgrOhSl4-78" edge="1">
          <mxGeometry width="50" height="50" relative="1" as="geometry">
            <mxPoint x="810" y="135" as="sourcePoint" />
            <mxPoint x="860" y="85" as="targetPoint" />
          </mxGeometry>
        </mxCell>
        <mxCell id="6AVrOI3u7pl0AgrOhSl4-94" value="Supplier" style="rounded=1;whiteSpace=wrap;html=1;" parent="1" vertex="1">
          <mxGeometry x="1170" y="700" width="120" height="60" as="geometry" />
        </mxCell>
        <mxCell id="6AVrOI3u7pl0AgrOhSl4-96" value="Phone" style="ellipse;whiteSpace=wrap;html=1;" parent="1" vertex="1">
          <mxGeometry x="1124" y="840" width="120" height="80" as="geometry" />
        </mxCell>
        <mxCell id="6AVrOI3u7pl0AgrOhSl4-97" value="TaxNumber" style="ellipse;whiteSpace=wrap;html=1;" parent="1" vertex="1">
          <mxGeometry x="975" y="800" width="120" height="80" as="geometry" />
        </mxCell>
        <mxCell id="6AVrOI3u7pl0AgrOhSl4-98" value="&lt;b&gt;&lt;u&gt;SupplierID&lt;/u&gt;&lt;/b&gt;" style="ellipse;whiteSpace=wrap;html=1;" parent="1" vertex="1">
          <mxGeometry x="1180" y="540" width="120" height="80" as="geometry" />
        </mxCell>
        <mxCell id="6AVrOI3u7pl0AgrOhSl4-99" value="Address" style="ellipse;whiteSpace=wrap;html=1;" parent="1" vertex="1">
          <mxGeometry x="970" y="690" width="120" height="80" as="geometry" />
        </mxCell>
        <mxCell id="6AVrOI3u7pl0AgrOhSl4-100" value="SupplierName" style="ellipse;whiteSpace=wrap;html=1;" parent="1" vertex="1">
          <mxGeometry x="1004" y="580" width="120" height="80" as="geometry" />
        </mxCell>
        <mxCell id="6AVrOI3u7pl0AgrOhSl4-101" value="" style="endArrow=none;html=1;rounded=0;entryX=0.25;entryY=1;entryDx=0;entryDy=0;exitX=1;exitY=0;exitDx=0;exitDy=0;" parent="1" source="6AVrOI3u7pl0AgrOhSl4-97" target="6AVrOI3u7pl0AgrOhSl4-94" edge="1">
          <mxGeometry width="50" height="50" relative="1" as="geometry">
            <mxPoint x="1140" y="810" as="sourcePoint" />
            <mxPoint x="1580" y="240" as="targetPoint" />
          </mxGeometry>
        </mxCell>
        <mxCell id="6AVrOI3u7pl0AgrOhSl4-102" value="" style="endArrow=none;html=1;rounded=0;exitX=0.5;exitY=0;exitDx=0;exitDy=0;entryX=0.5;entryY=1;entryDx=0;entryDy=0;" parent="1" source="6AVrOI3u7pl0AgrOhSl4-96" target="6AVrOI3u7pl0AgrOhSl4-94" edge="1">
          <mxGeometry width="50" height="50" relative="1" as="geometry">
            <mxPoint x="1530" y="290" as="sourcePoint" />
            <mxPoint x="1580" y="240" as="targetPoint" />
          </mxGeometry>
        </mxCell>
        <mxCell id="6AVrOI3u7pl0AgrOhSl4-103" value="" style="endArrow=none;html=1;rounded=0;exitX=0.5;exitY=0;exitDx=0;exitDy=0;entryX=0.5;entryY=1;entryDx=0;entryDy=0;" parent="1" source="6AVrOI3u7pl0AgrOhSl4-94" edge="1">
          <mxGeometry width="50" height="50" relative="1" as="geometry">
            <mxPoint x="1530" y="290" as="sourcePoint" />
            <mxPoint x="1240" y="620" as="targetPoint" />
          </mxGeometry>
        </mxCell>
        <mxCell id="6AVrOI3u7pl0AgrOhSl4-104" value="" style="endArrow=none;html=1;rounded=0;exitX=1;exitY=0.5;exitDx=0;exitDy=0;entryX=0;entryY=0.5;entryDx=0;entryDy=0;" parent="1" source="6AVrOI3u7pl0AgrOhSl4-99" target="6AVrOI3u7pl0AgrOhSl4-94" edge="1">
          <mxGeometry width="50" height="50" relative="1" as="geometry">
            <mxPoint x="1530" y="290" as="sourcePoint" />
            <mxPoint x="1580" y="240" as="targetPoint" />
          </mxGeometry>
        </mxCell>
        <mxCell id="6AVrOI3u7pl0AgrOhSl4-105" value="" style="endArrow=none;html=1;rounded=0;exitX=0.5;exitY=0;exitDx=0;exitDy=0;entryX=1;entryY=0.5;entryDx=0;entryDy=0;" parent="1" source="6AVrOI3u7pl0AgrOhSl4-94" target="6AVrOI3u7pl0AgrOhSl4-100" edge="1">
          <mxGeometry width="50" height="50" relative="1" as="geometry">
            <mxPoint x="1530" y="290" as="sourcePoint" />
            <mxPoint x="1580" y="240" as="targetPoint" />
          </mxGeometry>
        </mxCell>
        <mxCell id="6AVrOI3u7pl0AgrOhSl4-106" value="Role" style="rounded=1;whiteSpace=wrap;html=1;" parent="1" vertex="1">
          <mxGeometry x="2697" y="225" width="120" height="60" as="geometry" />
        </mxCell>
        <mxCell id="6AVrOI3u7pl0AgrOhSl4-107" value="&lt;b&gt;&lt;u&gt;RoleID&lt;/u&gt;&lt;/b&gt;" style="ellipse;whiteSpace=wrap;html=1;" parent="1" vertex="1">
          <mxGeometry x="2697" y="75" width="120" height="80" as="geometry" />
        </mxCell>
        <mxCell id="6AVrOI3u7pl0AgrOhSl4-108" value="RoleName" style="ellipse;whiteSpace=wrap;html=1;" parent="1" vertex="1">
          <mxGeometry x="2917" y="215" width="120" height="80" as="geometry" />
        </mxCell>
        <mxCell id="6AVrOI3u7pl0AgrOhSl4-109" value="Account" style="rounded=1;whiteSpace=wrap;html=1;" parent="1" vertex="1">
          <mxGeometry x="1966" y="225" width="120" height="60" as="geometry" />
        </mxCell>
        <mxCell id="6AVrOI3u7pl0AgrOhSl4-110" value="&lt;b&gt;&lt;u&gt;UserID&lt;/u&gt;&lt;/b&gt;" style="ellipse;whiteSpace=wrap;html=1;" parent="1" vertex="1">
          <mxGeometry x="1966" y="85" width="120" height="80" as="geometry" />
        </mxCell>
        <mxCell id="6AVrOI3u7pl0AgrOhSl4-111" value="Enable" style="ellipse;whiteSpace=wrap;html=1;" parent="1" vertex="1">
          <mxGeometry x="2226" y="335" width="120" height="80" as="geometry" />
        </mxCell>
        <mxCell id="6AVrOI3u7pl0AgrOhSl4-112" value="Email" style="ellipse;whiteSpace=wrap;html=1;" parent="1" vertex="1">
          <mxGeometry x="2046" y="355" width="120" height="80" as="geometry" />
        </mxCell>
        <mxCell id="6AVrOI3u7pl0AgrOhSl4-114" value="Password" style="ellipse;whiteSpace=wrap;html=1;" parent="1" vertex="1">
          <mxGeometry x="1876" y="365" width="120" height="80" as="geometry" />
        </mxCell>
        <mxCell id="6AVrOI3u7pl0AgrOhSl4-115" value="UserName" style="ellipse;whiteSpace=wrap;html=1;" parent="1" vertex="1">
          <mxGeometry x="1730" y="355" width="120" height="80" as="geometry" />
        </mxCell>
        <mxCell id="6AVrOI3u7pl0AgrOhSl4-118" value="" style="endArrow=none;html=1;rounded=0;exitX=1;exitY=0;exitDx=0;exitDy=0;entryX=0.5;entryY=1;entryDx=0;entryDy=0;" parent="1" source="6AVrOI3u7pl0AgrOhSl4-114" target="6AVrOI3u7pl0AgrOhSl4-109" edge="1">
          <mxGeometry width="50" height="50" relative="1" as="geometry">
            <mxPoint x="2576" y="-195" as="sourcePoint" />
            <mxPoint x="2626" y="-245" as="targetPoint" />
          </mxGeometry>
        </mxCell>
        <mxCell id="6AVrOI3u7pl0AgrOhSl4-119" value="" style="endArrow=none;html=1;rounded=0;exitX=0;exitY=0;exitDx=0;exitDy=0;entryX=0.5;entryY=1;entryDx=0;entryDy=0;" parent="1" source="6AVrOI3u7pl0AgrOhSl4-112" target="6AVrOI3u7pl0AgrOhSl4-109" edge="1">
          <mxGeometry width="50" height="50" relative="1" as="geometry">
            <mxPoint x="2576" y="-195" as="sourcePoint" />
            <mxPoint x="2626" y="-245" as="targetPoint" />
          </mxGeometry>
        </mxCell>
        <mxCell id="6AVrOI3u7pl0AgrOhSl4-120" value="" style="endArrow=none;html=1;rounded=0;exitX=0.5;exitY=0;exitDx=0;exitDy=0;entryX=0.5;entryY=1;entryDx=0;entryDy=0;" parent="1" source="6AVrOI3u7pl0AgrOhSl4-109" target="6AVrOI3u7pl0AgrOhSl4-110" edge="1">
          <mxGeometry width="50" height="50" relative="1" as="geometry">
            <mxPoint x="2576" y="-195" as="sourcePoint" />
            <mxPoint x="2626" y="-245" as="targetPoint" />
          </mxGeometry>
        </mxCell>
        <mxCell id="6AVrOI3u7pl0AgrOhSl4-122" value="" style="endArrow=none;html=1;rounded=0;exitX=0.5;exitY=1;exitDx=0;exitDy=0;entryX=0;entryY=0.5;entryDx=0;entryDy=0;" parent="1" source="6AVrOI3u7pl0AgrOhSl4-109" target="6AVrOI3u7pl0AgrOhSl4-111" edge="1">
          <mxGeometry width="50" height="50" relative="1" as="geometry">
            <mxPoint x="2576" y="-195" as="sourcePoint" />
            <mxPoint x="2626" y="-245" as="targetPoint" />
          </mxGeometry>
        </mxCell>
        <mxCell id="6AVrOI3u7pl0AgrOhSl4-123" value="" style="endArrow=none;html=1;rounded=0;exitX=1;exitY=0.5;exitDx=0;exitDy=0;" parent="1" edge="1">
          <mxGeometry width="50" height="50" relative="1" as="geometry">
            <mxPoint x="1846.0000000000146" y="375" as="sourcePoint" />
            <mxPoint x="2026" y="285" as="targetPoint" />
          </mxGeometry>
        </mxCell>
        <mxCell id="6AVrOI3u7pl0AgrOhSl4-127" value="" style="endArrow=none;html=1;rounded=0;exitX=0.5;exitY=0;exitDx=0;exitDy=0;entryX=0.5;entryY=1;entryDx=0;entryDy=0;" parent="1" source="6AVrOI3u7pl0AgrOhSl4-106" edge="1">
          <mxGeometry width="50" height="50" relative="1" as="geometry">
            <mxPoint x="2277" y="-75" as="sourcePoint" />
            <mxPoint x="2757" y="155" as="targetPoint" />
          </mxGeometry>
        </mxCell>
        <mxCell id="6AVrOI3u7pl0AgrOhSl4-128" value="" style="endArrow=none;html=1;rounded=0;exitX=0;exitY=0.5;exitDx=0;exitDy=0;entryX=1;entryY=0.5;entryDx=0;entryDy=0;" parent="1" source="6AVrOI3u7pl0AgrOhSl4-108" target="6AVrOI3u7pl0AgrOhSl4-106" edge="1">
          <mxGeometry width="50" height="50" relative="1" as="geometry">
            <mxPoint x="2587" y="95" as="sourcePoint" />
            <mxPoint x="2796" y="105" as="targetPoint" />
          </mxGeometry>
        </mxCell>
        <mxCell id="6AVrOI3u7pl0AgrOhSl4-133" value="Import" style="rounded=1;whiteSpace=wrap;html=1;" parent="1" vertex="1">
          <mxGeometry x="1610" y="699" width="120" height="60" as="geometry" />
        </mxCell>
        <mxCell id="6AVrOI3u7pl0AgrOhSl4-134" value="&lt;b&gt;&lt;u&gt;ImportID&lt;/u&gt;&lt;/b&gt;" style="ellipse;whiteSpace=wrap;html=1;" parent="1" vertex="1">
          <mxGeometry x="1610" y="550" width="120" height="80" as="geometry" />
        </mxCell>
        <mxCell id="6AVrOI3u7pl0AgrOhSl4-136" value="Total" style="ellipse;whiteSpace=wrap;html=1;" parent="1" vertex="1">
          <mxGeometry x="1810" y="560" width="120" height="80" as="geometry" />
        </mxCell>
        <mxCell id="6AVrOI3u7pl0AgrOhSl4-137" value="UpdateTime" style="ellipse;whiteSpace=wrap;html=1;" parent="1" vertex="1">
          <mxGeometry x="1770" y="800" width="120" height="80" as="geometry" />
        </mxCell>
        <mxCell id="6AVrOI3u7pl0AgrOhSl4-138" value="CreateTime" style="ellipse;whiteSpace=wrap;html=1;" parent="1" vertex="1">
          <mxGeometry x="1610" y="820" width="120" height="80" as="geometry" />
        </mxCell>
        <mxCell id="6AVrOI3u7pl0AgrOhSl4-141" value="" style="endArrow=none;html=1;rounded=0;entryX=0.5;entryY=0;entryDx=0;entryDy=0;exitX=0.5;exitY=1;exitDx=0;exitDy=0;" parent="1" source="6AVrOI3u7pl0AgrOhSl4-133" target="6AVrOI3u7pl0AgrOhSl4-138" edge="1">
          <mxGeometry width="50" height="50" relative="1" as="geometry">
            <mxPoint x="1360" y="510" as="sourcePoint" />
            <mxPoint x="1410" y="460" as="targetPoint" />
          </mxGeometry>
        </mxCell>
        <mxCell id="6AVrOI3u7pl0AgrOhSl4-143" value="" style="endArrow=none;html=1;rounded=0;entryX=0;entryY=0.5;entryDx=0;entryDy=0;exitX=0.5;exitY=0;exitDx=0;exitDy=0;" parent="1" source="6AVrOI3u7pl0AgrOhSl4-133" target="6AVrOI3u7pl0AgrOhSl4-136" edge="1">
          <mxGeometry width="50" height="50" relative="1" as="geometry">
            <mxPoint x="1360" y="510" as="sourcePoint" />
            <mxPoint x="1410" y="460" as="targetPoint" />
          </mxGeometry>
        </mxCell>
        <mxCell id="6AVrOI3u7pl0AgrOhSl4-144" value="" style="endArrow=none;html=1;rounded=0;entryX=0.5;entryY=0;entryDx=0;entryDy=0;exitX=0.5;exitY=1;exitDx=0;exitDy=0;" parent="1" source="6AVrOI3u7pl0AgrOhSl4-134" target="6AVrOI3u7pl0AgrOhSl4-133" edge="1">
          <mxGeometry width="50" height="50" relative="1" as="geometry">
            <mxPoint x="1360" y="510" as="sourcePoint" />
            <mxPoint x="1410" y="460" as="targetPoint" />
          </mxGeometry>
        </mxCell>
        <mxCell id="6AVrOI3u7pl0AgrOhSl4-146" value="" style="endArrow=none;html=1;rounded=0;exitX=0;exitY=0;exitDx=0;exitDy=0;entryX=0.5;entryY=1;entryDx=0;entryDy=0;" parent="1" source="6AVrOI3u7pl0AgrOhSl4-137" target="6AVrOI3u7pl0AgrOhSl4-133" edge="1">
          <mxGeometry width="50" height="50" relative="1" as="geometry">
            <mxPoint x="1360" y="510" as="sourcePoint" />
            <mxPoint x="1410" y="460" as="targetPoint" />
          </mxGeometry>
        </mxCell>
        <mxCell id="6AVrOI3u7pl0AgrOhSl4-147" value="" style="rounded=1;whiteSpace=wrap;html=1;" parent="1" vertex="1">
          <mxGeometry x="2020" y="698.86" width="120" height="60" as="geometry" />
        </mxCell>
        <mxCell id="6AVrOI3u7pl0AgrOhSl4-148" value="Quantity" style="ellipse;whiteSpace=wrap;html=1;" parent="1" vertex="1">
          <mxGeometry x="2226" y="688.86" width="120" height="80" as="geometry" />
        </mxCell>
        <mxCell id="6AVrOI3u7pl0AgrOhSl4-150" value="Unitprice" style="ellipse;whiteSpace=wrap;html=1;" parent="1" vertex="1">
          <mxGeometry x="2040" y="560" width="120" height="80" as="geometry" />
        </mxCell>
        <mxCell id="6AVrOI3u7pl0AgrOhSl4-153" value="" style="endArrow=none;html=1;rounded=0;exitX=0.5;exitY=0;exitDx=0;exitDy=0;entryX=0.5;entryY=1;entryDx=0;entryDy=0;" parent="1" source="6AVrOI3u7pl0AgrOhSl4-147" target="6AVrOI3u7pl0AgrOhSl4-150" edge="1">
          <mxGeometry width="50" height="50" relative="1" as="geometry">
            <mxPoint x="1830" y="568.86" as="sourcePoint" />
            <mxPoint x="2167.5735931287663" y="667.1442712474883" as="targetPoint" />
          </mxGeometry>
        </mxCell>
        <mxCell id="6AVrOI3u7pl0AgrOhSl4-155" value="" style="endArrow=none;html=1;rounded=0;exitX=0;exitY=0.5;exitDx=0;exitDy=0;entryX=1;entryY=0.5;entryDx=0;entryDy=0;" parent="1" source="6AVrOI3u7pl0AgrOhSl4-148" target="6AVrOI3u7pl0AgrOhSl4-147" edge="1">
          <mxGeometry width="50" height="50" relative="1" as="geometry">
            <mxPoint x="1830" y="568.86" as="sourcePoint" />
            <mxPoint x="2120" y="700" as="targetPoint" />
          </mxGeometry>
        </mxCell>
        <mxCell id="6AVrOI3u7pl0AgrOhSl4-156" value="Function" style="rounded=1;whiteSpace=wrap;html=1;" parent="1" vertex="1">
          <mxGeometry x="3100" y="480" width="120" height="60" as="geometry" />
        </mxCell>
        <mxCell id="6AVrOI3u7pl0AgrOhSl4-157" value="FunctionName" style="ellipse;whiteSpace=wrap;html=1;" parent="1" vertex="1">
          <mxGeometry x="3100" y="605" width="120" height="80" as="geometry" />
        </mxCell>
        <mxCell id="6AVrOI3u7pl0AgrOhSl4-158" value="&lt;b&gt;&lt;u&gt;FunctionID&lt;/u&gt;&lt;/b&gt;" style="ellipse;whiteSpace=wrap;html=1;" parent="1" vertex="1">
          <mxGeometry x="3100" y="335" width="120" height="80" as="geometry" />
        </mxCell>
        <mxCell id="6AVrOI3u7pl0AgrOhSl4-159" value="" style="endArrow=none;html=1;rounded=0;exitX=0.5;exitY=0;exitDx=0;exitDy=0;entryX=0.5;entryY=1;entryDx=0;entryDy=0;" parent="1" source="6AVrOI3u7pl0AgrOhSl4-156" target="6AVrOI3u7pl0AgrOhSl4-158" edge="1">
          <mxGeometry width="50" height="50" relative="1" as="geometry">
            <mxPoint x="2287" y="920" as="sourcePoint" />
            <mxPoint x="2337" y="870" as="targetPoint" />
          </mxGeometry>
        </mxCell>
        <mxCell id="6AVrOI3u7pl0AgrOhSl4-160" value="" style="endArrow=none;html=1;rounded=0;exitX=0.5;exitY=1;exitDx=0;exitDy=0;entryX=0.5;entryY=0;entryDx=0;entryDy=0;" parent="1" source="6AVrOI3u7pl0AgrOhSl4-156" target="6AVrOI3u7pl0AgrOhSl4-157" edge="1">
          <mxGeometry width="50" height="50" relative="1" as="geometry">
            <mxPoint x="2287" y="920" as="sourcePoint" />
            <mxPoint x="2337" y="870" as="targetPoint" />
          </mxGeometry>
        </mxCell>
        <mxCell id="6AVrOI3u7pl0AgrOhSl4-161" value="Có" style="rhombus;whiteSpace=wrap;html=1;" parent="1" vertex="1">
          <mxGeometry x="2386" y="215" width="80" height="80" as="geometry" />
        </mxCell>
        <mxCell id="6AVrOI3u7pl0AgrOhSl4-162" value="" style="endArrow=none;html=1;rounded=0;exitX=1;exitY=0.5;exitDx=0;exitDy=0;entryX=0;entryY=0.5;entryDx=0;entryDy=0;" parent="1" source="6AVrOI3u7pl0AgrOhSl4-109" target="6AVrOI3u7pl0AgrOhSl4-161" edge="1">
          <mxGeometry width="50" height="50" relative="1" as="geometry">
            <mxPoint x="2506" y="515" as="sourcePoint" />
            <mxPoint x="2556" y="465" as="targetPoint" />
          </mxGeometry>
        </mxCell>
        <mxCell id="6AVrOI3u7pl0AgrOhSl4-163" value="" style="endArrow=none;html=1;rounded=0;exitX=1;exitY=0.5;exitDx=0;exitDy=0;entryX=0;entryY=0.5;entryDx=0;entryDy=0;" parent="1" source="6AVrOI3u7pl0AgrOhSl4-161" target="6AVrOI3u7pl0AgrOhSl4-106" edge="1">
          <mxGeometry width="50" height="50" relative="1" as="geometry">
            <mxPoint x="2506" y="515" as="sourcePoint" />
            <mxPoint x="2556" y="465" as="targetPoint" />
          </mxGeometry>
        </mxCell>
        <mxCell id="6AVrOI3u7pl0AgrOhSl4-164" value="1" style="text;html=1;strokeColor=none;fillColor=none;align=center;verticalAlign=middle;whiteSpace=wrap;rounded=0;" parent="1" vertex="1">
          <mxGeometry x="2246" y="225" width="60" height="30" as="geometry" />
        </mxCell>
        <mxCell id="6AVrOI3u7pl0AgrOhSl4-165" value="1" style="text;html=1;strokeColor=none;fillColor=none;align=center;verticalAlign=middle;whiteSpace=wrap;rounded=0;" parent="1" vertex="1">
          <mxGeometry x="2536" y="225" width="60" height="30" as="geometry" />
        </mxCell>
        <mxCell id="6AVrOI3u7pl0AgrOhSl4-167" value="Có" style="rhombus;whiteSpace=wrap;html=1;" parent="1" vertex="1">
          <mxGeometry x="350" y="220" width="80" height="80" as="geometry" />
        </mxCell>
        <mxCell id="6AVrOI3u7pl0AgrOhSl4-168" value="n" style="text;html=1;strokeColor=none;fillColor=none;align=center;verticalAlign=middle;whiteSpace=wrap;rounded=0;" parent="1" vertex="1">
          <mxGeometry x="490" y="225" width="60" height="30" as="geometry" />
        </mxCell>
        <mxCell id="6AVrOI3u7pl0AgrOhSl4-169" value="1" style="text;html=1;strokeColor=none;fillColor=none;align=center;verticalAlign=middle;whiteSpace=wrap;rounded=0;" parent="1" vertex="1">
          <mxGeometry x="240" y="225" width="60" height="30" as="geometry" />
        </mxCell>
        <mxCell id="6AVrOI3u7pl0AgrOhSl4-170" value="" style="endArrow=none;html=1;rounded=0;exitX=1;exitY=0.5;exitDx=0;exitDy=0;" parent="1" source="6AVrOI3u7pl0AgrOhSl4-1" target="6AVrOI3u7pl0AgrOhSl4-167" edge="1">
          <mxGeometry width="50" height="50" relative="1" as="geometry">
            <mxPoint x="500" y="470" as="sourcePoint" />
            <mxPoint x="550" y="420" as="targetPoint" />
          </mxGeometry>
        </mxCell>
        <mxCell id="6AVrOI3u7pl0AgrOhSl4-171" value="" style="endArrow=none;html=1;rounded=0;exitX=1;exitY=0.5;exitDx=0;exitDy=0;entryX=0;entryY=0.5;entryDx=0;entryDy=0;" parent="1" source="6AVrOI3u7pl0AgrOhSl4-167" target="6AVrOI3u7pl0AgrOhSl4-46" edge="1">
          <mxGeometry width="50" height="50" relative="1" as="geometry">
            <mxPoint x="500" y="470" as="sourcePoint" />
            <mxPoint x="550" y="420" as="targetPoint" />
          </mxGeometry>
        </mxCell>
        <mxCell id="6AVrOI3u7pl0AgrOhSl4-172" value="Manage" style="rhombus;whiteSpace=wrap;html=1;" parent="1" vertex="1">
          <mxGeometry x="1010" y="220" width="80" height="80" as="geometry" />
        </mxCell>
        <mxCell id="6AVrOI3u7pl0AgrOhSl4-173" value="" style="endArrow=none;html=1;rounded=0;exitX=1;exitY=0.5;exitDx=0;exitDy=0;entryX=0;entryY=0.5;entryDx=0;entryDy=0;" parent="1" source="6AVrOI3u7pl0AgrOhSl4-46" target="6AVrOI3u7pl0AgrOhSl4-172" edge="1">
          <mxGeometry width="50" height="50" relative="1" as="geometry">
            <mxPoint x="920" y="500" as="sourcePoint" />
            <mxPoint x="970" y="450" as="targetPoint" />
          </mxGeometry>
        </mxCell>
        <mxCell id="6AVrOI3u7pl0AgrOhSl4-174" value="" style="endArrow=none;html=1;rounded=0;exitX=1;exitY=0.5;exitDx=0;exitDy=0;entryX=0;entryY=0.5;entryDx=0;entryDy=0;" parent="1" source="6AVrOI3u7pl0AgrOhSl4-172" target="6AVrOI3u7pl0AgrOhSl4-68" edge="1">
          <mxGeometry width="50" height="50" relative="1" as="geometry">
            <mxPoint x="920" y="500" as="sourcePoint" />
            <mxPoint x="970" y="450" as="targetPoint" />
          </mxGeometry>
        </mxCell>
        <mxCell id="6AVrOI3u7pl0AgrOhSl4-175" value="n" style="text;html=1;strokeColor=none;fillColor=none;align=center;verticalAlign=middle;whiteSpace=wrap;rounded=0;" parent="1" vertex="1">
          <mxGeometry x="920" y="225" width="60" height="30" as="geometry" />
        </mxCell>
        <mxCell id="6AVrOI3u7pl0AgrOhSl4-176" value="1" style="text;html=1;strokeColor=none;fillColor=none;align=center;verticalAlign=middle;whiteSpace=wrap;rounded=0;" parent="1" vertex="1">
          <mxGeometry x="1130" y="225" width="60" height="30" as="geometry" />
        </mxCell>
        <mxCell id="6AVrOI3u7pl0AgrOhSl4-177" value="Có" style="rhombus;whiteSpace=wrap;html=1;" parent="1" vertex="1">
          <mxGeometry x="700" y="340" width="80" height="80" as="geometry" />
        </mxCell>
        <mxCell id="6AVrOI3u7pl0AgrOhSl4-178" value="" style="endArrow=none;html=1;rounded=0;exitX=0.5;exitY=0;exitDx=0;exitDy=0;entryX=0.5;entryY=1;entryDx=0;entryDy=0;" parent="1" source="6AVrOI3u7pl0AgrOhSl4-59" target="6AVrOI3u7pl0AgrOhSl4-177" edge="1">
          <mxGeometry width="50" height="50" relative="1" as="geometry">
            <mxPoint x="920" y="480" as="sourcePoint" />
            <mxPoint x="970" y="430" as="targetPoint" />
          </mxGeometry>
        </mxCell>
        <mxCell id="6AVrOI3u7pl0AgrOhSl4-179" value="" style="endArrow=none;html=1;rounded=0;exitX=0.5;exitY=1;exitDx=0;exitDy=0;entryX=0.5;entryY=0;entryDx=0;entryDy=0;" parent="1" source="6AVrOI3u7pl0AgrOhSl4-46" target="6AVrOI3u7pl0AgrOhSl4-177" edge="1">
          <mxGeometry width="50" height="50" relative="1" as="geometry">
            <mxPoint x="920" y="500" as="sourcePoint" />
            <mxPoint x="970" y="450" as="targetPoint" />
          </mxGeometry>
        </mxCell>
        <mxCell id="6AVrOI3u7pl0AgrOhSl4-180" value="1" style="text;html=1;strokeColor=none;fillColor=none;align=center;verticalAlign=middle;whiteSpace=wrap;rounded=0;" parent="1" vertex="1">
          <mxGeometry x="720" y="310" width="60" height="30" as="geometry" />
        </mxCell>
        <mxCell id="6AVrOI3u7pl0AgrOhSl4-181" value="1" style="text;html=1;strokeColor=none;fillColor=none;align=center;verticalAlign=middle;whiteSpace=wrap;rounded=0;" parent="1" vertex="1">
          <mxGeometry x="720" y="430" width="60" height="30" as="geometry" />
        </mxCell>
        <mxCell id="6AVrOI3u7pl0AgrOhSl4-182" value="BillDetail" style="rounded=1;whiteSpace=wrap;html=1;" parent="1" vertex="1">
          <mxGeometry x="687.5" y="490" width="105" height="40" as="geometry" />
        </mxCell>
        <mxCell id="6AVrOI3u7pl0AgrOhSl4-183" value="1" style="text;html=1;strokeColor=none;fillColor=none;align=center;verticalAlign=middle;whiteSpace=wrap;rounded=0;" parent="1" vertex="1">
          <mxGeometry x="1340" y="699" width="60" height="30" as="geometry" />
        </mxCell>
        <mxCell id="6AVrOI3u7pl0AgrOhSl4-184" value="Có" style="rhombus;whiteSpace=wrap;html=1;" parent="1" vertex="1">
          <mxGeometry x="1410" y="689" width="80" height="80" as="geometry" />
        </mxCell>
        <mxCell id="6AVrOI3u7pl0AgrOhSl4-186" value="" style="endArrow=none;html=1;rounded=0;exitX=1;exitY=0.5;exitDx=0;exitDy=0;entryX=0;entryY=0.5;entryDx=0;entryDy=0;" parent="1" source="6AVrOI3u7pl0AgrOhSl4-94" target="6AVrOI3u7pl0AgrOhSl4-184" edge="1">
          <mxGeometry width="50" height="50" relative="1" as="geometry">
            <mxPoint x="1710" y="480" as="sourcePoint" />
            <mxPoint x="1760" y="430" as="targetPoint" />
          </mxGeometry>
        </mxCell>
        <mxCell id="6AVrOI3u7pl0AgrOhSl4-187" value="" style="endArrow=none;html=1;rounded=0;exitX=1;exitY=0.5;exitDx=0;exitDy=0;entryX=0;entryY=0.5;entryDx=0;entryDy=0;" parent="1" source="6AVrOI3u7pl0AgrOhSl4-184" target="6AVrOI3u7pl0AgrOhSl4-133" edge="1">
          <mxGeometry width="50" height="50" relative="1" as="geometry">
            <mxPoint x="1710" y="480" as="sourcePoint" />
            <mxPoint x="1760" y="430" as="targetPoint" />
          </mxGeometry>
        </mxCell>
        <mxCell id="6AVrOI3u7pl0AgrOhSl4-188" value="n" style="text;html=1;strokeColor=none;fillColor=none;align=center;verticalAlign=middle;whiteSpace=wrap;rounded=0;" parent="1" vertex="1">
          <mxGeometry x="1530" y="699" width="60" height="30" as="geometry" />
        </mxCell>
        <mxCell id="6AVrOI3u7pl0AgrOhSl4-191" value="Nhập" style="rhombus;whiteSpace=wrap;html=1;" parent="1" vertex="1">
          <mxGeometry x="1450" y="435" width="80" height="80" as="geometry" />
        </mxCell>
        <mxCell id="6AVrOI3u7pl0AgrOhSl4-192" value="" style="endArrow=none;html=1;rounded=0;entryX=0;entryY=0.25;entryDx=0;entryDy=0;" parent="1" target="6AVrOI3u7pl0AgrOhSl4-133" edge="1">
          <mxGeometry width="50" height="50" relative="1" as="geometry">
            <mxPoint x="1510" y="500" as="sourcePoint" />
            <mxPoint x="1210" y="420" as="targetPoint" />
          </mxGeometry>
        </mxCell>
        <mxCell id="6AVrOI3u7pl0AgrOhSl4-193" value="" style="endArrow=none;html=1;rounded=0;exitX=0.75;exitY=1;exitDx=0;exitDy=0;entryX=0;entryY=0;entryDx=0;entryDy=0;" parent="1" source="6AVrOI3u7pl0AgrOhSl4-68" target="6AVrOI3u7pl0AgrOhSl4-191" edge="1">
          <mxGeometry width="50" height="50" relative="1" as="geometry">
            <mxPoint x="1160" y="470" as="sourcePoint" />
            <mxPoint x="1210" y="420" as="targetPoint" />
          </mxGeometry>
        </mxCell>
        <mxCell id="6AVrOI3u7pl0AgrOhSl4-195" value="1" style="text;html=1;strokeColor=none;fillColor=none;align=center;verticalAlign=middle;whiteSpace=wrap;rounded=0;" parent="1" vertex="1">
          <mxGeometry x="1430" y="395" width="60" height="30" as="geometry" />
        </mxCell>
        <mxCell id="6AVrOI3u7pl0AgrOhSl4-196" value="n" style="text;html=1;strokeColor=none;fillColor=none;align=center;verticalAlign=middle;whiteSpace=wrap;rounded=0;" parent="1" vertex="1">
          <mxGeometry x="1520" y="530" width="60" height="30" as="geometry" />
        </mxCell>
        <mxCell id="6AVrOI3u7pl0AgrOhSl4-199" value="ImportDetail" style="rounded=1;whiteSpace=wrap;html=1;" parent="1" vertex="1">
          <mxGeometry x="2030" y="708.86" width="100" height="40" as="geometry" />
        </mxCell>
        <mxCell id="6AVrOI3u7pl0AgrOhSl4-200" value="n" style="text;html=1;strokeColor=none;fillColor=none;align=center;verticalAlign=middle;whiteSpace=wrap;rounded=0;" parent="1" vertex="1">
          <mxGeometry x="1930" y="698.86" width="60" height="30" as="geometry" />
        </mxCell>
        <mxCell id="6AVrOI3u7pl0AgrOhSl4-201" value="1" style="text;html=1;strokeColor=none;fillColor=none;align=center;verticalAlign=middle;whiteSpace=wrap;rounded=0;" parent="1" vertex="1">
          <mxGeometry x="1760" y="698.86" width="60" height="30" as="geometry" />
        </mxCell>
        <mxCell id="6AVrOI3u7pl0AgrOhSl4-202" value="thuộc" style="rhombus;whiteSpace=wrap;html=1;" parent="1" vertex="1">
          <mxGeometry x="1840" y="689" width="80" height="80" as="geometry" />
        </mxCell>
        <mxCell id="6AVrOI3u7pl0AgrOhSl4-203" value="" style="endArrow=none;html=1;rounded=0;exitX=1;exitY=0.5;exitDx=0;exitDy=0;" parent="1" source="6AVrOI3u7pl0AgrOhSl4-202" edge="1">
          <mxGeometry width="50" height="50" relative="1" as="geometry">
            <mxPoint x="1620" y="800" as="sourcePoint" />
            <mxPoint x="2020" y="729" as="targetPoint" />
          </mxGeometry>
        </mxCell>
        <mxCell id="6AVrOI3u7pl0AgrOhSl4-204" value="" style="endArrow=none;html=1;rounded=0;exitX=0;exitY=0.5;exitDx=0;exitDy=0;entryX=1;entryY=0.5;entryDx=0;entryDy=0;" parent="1" source="6AVrOI3u7pl0AgrOhSl4-202" target="6AVrOI3u7pl0AgrOhSl4-133" edge="1">
          <mxGeometry width="50" height="50" relative="1" as="geometry">
            <mxPoint x="1620" y="800" as="sourcePoint" />
            <mxPoint x="1670" y="750" as="targetPoint" />
          </mxGeometry>
        </mxCell>
        <mxCell id="6AVrOI3u7pl0AgrOhSl4-207" value="Có" style="rhombus;whiteSpace=wrap;html=1;" parent="1" vertex="1">
          <mxGeometry x="1670" y="220" width="80" height="80" as="geometry" />
        </mxCell>
        <mxCell id="6AVrOI3u7pl0AgrOhSl4-208" value="" style="endArrow=none;html=1;rounded=0;exitX=1;exitY=0.5;exitDx=0;exitDy=0;entryX=0;entryY=0.5;entryDx=0;entryDy=0;" parent="1" source="6AVrOI3u7pl0AgrOhSl4-68" target="6AVrOI3u7pl0AgrOhSl4-207" edge="1">
          <mxGeometry width="50" height="50" relative="1" as="geometry">
            <mxPoint x="1600" y="480" as="sourcePoint" />
            <mxPoint x="1650" y="430" as="targetPoint" />
          </mxGeometry>
        </mxCell>
        <mxCell id="6AVrOI3u7pl0AgrOhSl4-209" value="" style="endArrow=none;html=1;rounded=0;exitX=1;exitY=0.5;exitDx=0;exitDy=0;entryX=0;entryY=0.5;entryDx=0;entryDy=0;" parent="1" source="6AVrOI3u7pl0AgrOhSl4-207" target="6AVrOI3u7pl0AgrOhSl4-109" edge="1">
          <mxGeometry width="50" height="50" relative="1" as="geometry">
            <mxPoint x="1600" y="480" as="sourcePoint" />
            <mxPoint x="1650" y="430" as="targetPoint" />
          </mxGeometry>
        </mxCell>
        <mxCell id="6AVrOI3u7pl0AgrOhSl4-210" value="n" style="text;html=1;strokeColor=none;fillColor=none;align=center;verticalAlign=middle;whiteSpace=wrap;rounded=0;" parent="1" vertex="1">
          <mxGeometry x="1760" y="235" width="60" height="30" as="geometry" />
        </mxCell>
        <mxCell id="6AVrOI3u7pl0AgrOhSl4-211" value="1" style="text;html=1;strokeColor=none;fillColor=none;align=center;verticalAlign=middle;whiteSpace=wrap;rounded=0;" parent="1" vertex="1">
          <mxGeometry x="1590" y="235" width="60" height="30" as="geometry" />
        </mxCell>
        <mxCell id="6AVrOI3u7pl0AgrOhSl4-214" value="" style="rounded=1;whiteSpace=wrap;html=1;" parent="1" vertex="1">
          <mxGeometry x="2697" y="480" width="120" height="60" as="geometry" />
        </mxCell>
        <mxCell id="6AVrOI3u7pl0AgrOhSl4-215" value="RoleDetail" style="rounded=1;whiteSpace=wrap;html=1;" parent="1" vertex="1">
          <mxGeometry x="2713" y="490" width="87" height="35" as="geometry" />
        </mxCell>
        <mxCell id="6AVrOI3u7pl0AgrOhSl4-217" value="Có" style="rhombus;whiteSpace=wrap;html=1;" parent="1" vertex="1">
          <mxGeometry x="2717" y="340" width="80" height="80" as="geometry" />
        </mxCell>
        <mxCell id="6AVrOI3u7pl0AgrOhSl4-218" value="" style="endArrow=none;html=1;rounded=0;entryX=0.5;entryY=1;entryDx=0;entryDy=0;" parent="1" target="6AVrOI3u7pl0AgrOhSl4-217" edge="1">
          <mxGeometry width="50" height="50" relative="1" as="geometry">
            <mxPoint x="2757" y="480" as="sourcePoint" />
            <mxPoint x="1800" y="510" as="targetPoint" />
          </mxGeometry>
        </mxCell>
        <mxCell id="6AVrOI3u7pl0AgrOhSl4-219" value="" style="endArrow=none;html=1;rounded=0;exitX=0.5;exitY=1;exitDx=0;exitDy=0;entryX=0.5;entryY=0;entryDx=0;entryDy=0;" parent="1" source="6AVrOI3u7pl0AgrOhSl4-106" target="6AVrOI3u7pl0AgrOhSl4-217" edge="1">
          <mxGeometry width="50" height="50" relative="1" as="geometry">
            <mxPoint x="1750" y="560" as="sourcePoint" />
            <mxPoint x="1800" y="510" as="targetPoint" />
          </mxGeometry>
        </mxCell>
        <mxCell id="6AVrOI3u7pl0AgrOhSl4-220" value="Text" style="text;html=1;strokeColor=none;fillColor=none;align=center;verticalAlign=middle;whiteSpace=wrap;rounded=0;" parent="1" vertex="1">
          <mxGeometry x="1750" y="520" width="60" height="30" as="geometry" />
        </mxCell>
        <mxCell id="6AVrOI3u7pl0AgrOhSl4-221" value="1" style="text;html=1;strokeColor=none;fillColor=none;align=center;verticalAlign=middle;whiteSpace=wrap;rounded=0;" parent="1" vertex="1">
          <mxGeometry x="2740" y="300" width="60" height="30" as="geometry" />
        </mxCell>
        <mxCell id="6AVrOI3u7pl0AgrOhSl4-222" value="n" style="text;html=1;strokeColor=none;fillColor=none;align=center;verticalAlign=middle;whiteSpace=wrap;rounded=0;" parent="1" vertex="1">
          <mxGeometry x="2750" y="445" width="60" height="30" as="geometry" />
        </mxCell>
        <mxCell id="6AVrOI3u7pl0AgrOhSl4-224" value="Thuộc" style="rhombus;whiteSpace=wrap;html=1;" parent="1" vertex="1">
          <mxGeometry x="2170" y="1221" width="80" height="80" as="geometry" />
        </mxCell>
        <mxCell id="6AVrOI3u7pl0AgrOhSl4-225" value="" style="endArrow=none;html=1;rounded=0;exitX=1;exitY=0.5;exitDx=0;exitDy=0;entryX=0;entryY=0.5;entryDx=0;entryDy=0;" parent="1" source="6AVrOI3u7pl0AgrOhSl4-224" target="6AVrOI3u7pl0AgrOhSl4-15" edge="1">
          <mxGeometry width="50" height="50" relative="1" as="geometry">
            <mxPoint x="2060" y="1471" as="sourcePoint" />
            <mxPoint x="2110" y="1421" as="targetPoint" />
          </mxGeometry>
        </mxCell>
        <mxCell id="6AVrOI3u7pl0AgrOhSl4-226" value="" style="endArrow=none;html=1;rounded=0;exitX=1;exitY=0.5;exitDx=0;exitDy=0;entryX=0;entryY=0.5;entryDx=0;entryDy=0;" parent="1" source="6AVrOI3u7pl0AgrOhSl4-41" target="6AVrOI3u7pl0AgrOhSl4-224" edge="1">
          <mxGeometry width="50" height="50" relative="1" as="geometry">
            <mxPoint x="2060" y="1471" as="sourcePoint" />
            <mxPoint x="2110" y="1421" as="targetPoint" />
          </mxGeometry>
        </mxCell>
        <mxCell id="6AVrOI3u7pl0AgrOhSl4-227" value="m" style="text;html=1;strokeColor=none;fillColor=none;align=center;verticalAlign=middle;whiteSpace=wrap;rounded=0;" parent="1" vertex="1">
          <mxGeometry x="2570" y="1231" width="60" height="30" as="geometry" />
        </mxCell>
        <mxCell id="6AVrOI3u7pl0AgrOhSl4-228" value="1" style="text;html=1;strokeColor=none;fillColor=none;align=center;verticalAlign=middle;whiteSpace=wrap;rounded=0;" parent="1" vertex="1">
          <mxGeometry x="2260" y="1231" width="60" height="30" as="geometry" />
        </mxCell>
        <mxCell id="6AVrOI3u7pl0AgrOhSl4-229" value="n" style="text;html=1;strokeColor=none;fillColor=none;align=center;verticalAlign=middle;whiteSpace=wrap;rounded=0;" parent="1" vertex="1">
          <mxGeometry x="2090" y="1230" width="60" height="30" as="geometry" />
        </mxCell>
        <mxCell id="6AVrOI3u7pl0AgrOhSl4-230" value="Có" style="rhombus;whiteSpace=wrap;html=1;" parent="1" vertex="1">
          <mxGeometry x="2660" y="1220" width="80" height="80" as="geometry" />
        </mxCell>
        <mxCell id="6AVrOI3u7pl0AgrOhSl4-231" value="" style="endArrow=none;html=1;rounded=0;entryX=1;entryY=0.5;entryDx=0;entryDy=0;exitX=0;exitY=0.5;exitDx=0;exitDy=0;" parent="1" source="6AVrOI3u7pl0AgrOhSl4-36" target="6AVrOI3u7pl0AgrOhSl4-230" edge="1">
          <mxGeometry width="50" height="50" relative="1" as="geometry">
            <mxPoint x="2060" y="1471" as="sourcePoint" />
            <mxPoint x="2110" y="1421" as="targetPoint" />
          </mxGeometry>
        </mxCell>
        <mxCell id="6AVrOI3u7pl0AgrOhSl4-232" value="" style="endArrow=none;html=1;rounded=0;exitX=0;exitY=0.5;exitDx=0;exitDy=0;entryX=1;entryY=0.5;entryDx=0;entryDy=0;" parent="1" source="6AVrOI3u7pl0AgrOhSl4-230" target="6AVrOI3u7pl0AgrOhSl4-15" edge="1">
          <mxGeometry width="50" height="50" relative="1" as="geometry">
            <mxPoint x="2060" y="1471" as="sourcePoint" />
            <mxPoint x="2110" y="1421" as="targetPoint" />
          </mxGeometry>
        </mxCell>
        <mxCell id="6AVrOI3u7pl0AgrOhSl4-233" value="n" style="text;html=1;strokeColor=none;fillColor=none;align=center;verticalAlign=middle;whiteSpace=wrap;rounded=0;" parent="1" vertex="1">
          <mxGeometry x="2750" y="1231" width="60" height="30" as="geometry" />
        </mxCell>
        <mxCell id="6AVrOI3u7pl0AgrOhSl4-234" value="Có" style="rhombus;whiteSpace=wrap;html=1;" parent="1" vertex="1">
          <mxGeometry x="2910" y="470" width="80" height="80" as="geometry" />
        </mxCell>
        <mxCell id="6AVrOI3u7pl0AgrOhSl4-236" value="" style="endArrow=none;html=1;rounded=0;exitX=0;exitY=0.5;exitDx=0;exitDy=0;" parent="1" source="6AVrOI3u7pl0AgrOhSl4-234" edge="1">
          <mxGeometry width="50" height="50" relative="1" as="geometry">
            <mxPoint x="2070" y="960" as="sourcePoint" />
            <mxPoint x="2820" y="510" as="targetPoint" />
          </mxGeometry>
        </mxCell>
        <mxCell id="6AVrOI3u7pl0AgrOhSl4-237" value="" style="endArrow=none;html=1;rounded=0;entryX=1;entryY=0.5;entryDx=0;entryDy=0;" parent="1" target="6AVrOI3u7pl0AgrOhSl4-234" edge="1">
          <mxGeometry width="50" height="50" relative="1" as="geometry">
            <mxPoint x="3100" y="510" as="sourcePoint" />
            <mxPoint x="2120" y="910" as="targetPoint" />
          </mxGeometry>
        </mxCell>
        <mxCell id="6AVrOI3u7pl0AgrOhSl4-239" value="n" style="text;html=1;strokeColor=none;fillColor=none;align=center;verticalAlign=middle;whiteSpace=wrap;rounded=0;" parent="1" vertex="1">
          <mxGeometry x="3147" y="555" width="60" height="30" as="geometry" />
        </mxCell>
        <mxCell id="6AVrOI3u7pl0AgrOhSl4-240" value="m" style="text;html=1;strokeColor=none;fillColor=none;align=center;verticalAlign=middle;whiteSpace=wrap;rounded=0;" parent="1" vertex="1">
          <mxGeometry x="3147" y="440" width="60" height="30" as="geometry" />
        </mxCell>
      </root>
    </mxGraphModel>
  </diagram>
</mxfile>
